<?xml version="1.0"?><svg id="Layer_2" xmlns="http://www.w3.org/2000/svg" viewBox="0 0 22.23 28.29"><g id="Selected"><path d="M10.61,20.2c1.39,0,2.53-1.13,2.53-2.53s-1.13-2.53-2.53-2.53-2.53,1.13-2.53,2.53,1.13,2.53,2.53,2.53ZM2.55,0h4.49c2.8,0,5.08,2.27,5.08,5.08v5s.01.03.03.03h5c2.8,0,5.08,2.27,5.08,5.08v10.55c0,1.41-1.14,2.55-2.55,2.55H2.53c-1.39,0-2.53-1.13-2.53-2.53h0V2.55C0,1.14,1.14,0,2.55,0ZM16.8,22.44l-2.33-2.33s0-.02,0-.03c1.32-2.12.68-4.9-1.42-6.24s-5-.66-6.3,1.44-.68,4.92,1.44,6.25c.72.46,1.56.7,2.42.7.88,0,1.71-.25,2.4-.69.01,0,.02,0,.03,0l2.33,2.33s.03.01.04,0l1.39-1.39s.01-.03,0-.04ZM14.14,5.05c0-1.68-.6-3.31-1.69-4.58-.01-.02,0-.04.02-.04h6.51c1.56,0,2.82,1.26,2.82,2.82v6.51s-.03.03-.04.02c-1.28-1.09-2.9-1.69-4.58-1.69h-3s-.03-.01-.03-.03v-3Z"></path></g></svg>